<?xml version="1.0" encoding="utf-8"?>
<!-- Generator: Adobe Illustrator 16.0.0, SVG Export Plug-In . SVG Version: 6.00 Build 0)  -->
<!DOCTYPE svg PUBLIC "-//W3C//DTD SVG 1.1//EN" "http://www.w3.org/Graphics/SVG/1.1/DTD/svg11.dtd">
<svg version="1.1" id="Layer_1" xmlns="http://www.w3.org/2000/svg" xmlns:xlink="http://www.w3.org/1999/xlink" x="0px" y="0px"
	 width="307px" height="385px" viewBox="0 0 307 385" enable-background="new 0 0 307 385" xml:space="preserve">
<g>
	<polygon fill="none" stroke="#000000" stroke-miterlimit="10" points="38.311,88.535 83.404,10.43 128.498,88.535 	"/>
	<polygon points="68.064,37 83.404,10.43 98.744,37 	"/>
	<text transform="matrix(1 0 0 1 75.7744 34.5)" fill="#FFFFFF" font-family="'MyriadPro-Regular'" font-size="14">VP</text>
	<text transform="matrix(1 0 0 1 68.502 70)" font-family="'MyriadPro-Regular'" font-size="14">Logo</text>
</g>
<g>
	<rect x="36.404" y="149.286" fill="none" stroke="#000000" stroke-miterlimit="10" width="109.596" height="41.214"/>
	<rect x="36.404" y="149.286" width="27.096" height="17.214"/>
	<text transform="matrix(1 0 0 1 46.0938 162)" fill="#FFFFFF" font-family="'MyriadPro-Regular'" font-size="14">V</text>
	<text transform="matrix(1 0 0 1 56.6221 183)" font-family="'MyriadPro-Regular'" font-size="14">Guaranteed</text>
</g>
<g>
	<polygon fill="none" stroke="#000000" stroke-miterlimit="10" points="165.406,90.945 210.5,12.84 255.594,90.945 	"/>
	<polygon points="195.16,39.41 210.5,12.84 225.84,39.41 	"/>
	<text transform="matrix(1 0 0 1 202.8701 36.9102)" fill="#FFFFFF" font-family="'MyriadPro-Regular'" font-size="14">VP</text>
	<text transform="matrix(1 0 0 1 195.2891 63.4102)" font-family="'MyriadPro-Regular'" font-size="14">Data </text>
	<text transform="matrix(1 0 0 1 179.5176 80.21)" font-family="'MyriadPro-Regular'" font-size="14">separation</text>
</g>
<g>
	<rect x="179.404" y="149.286" fill="none" stroke="#000000" stroke-miterlimit="10" width="109.596" height="41.214"/>
	<rect x="179.404" y="149.286" width="27.096" height="17.214"/>
	<text transform="matrix(1 0 0 1 189.0938 162)" fill="#FFFFFF" font-family="'MyriadPro-Regular'" font-size="14">V</text>
	<text transform="matrix(1 0 0 1 187.9814 183)" font-family="'MyriadPro-Regular'" font-size="14">Not guaranteed</text>
</g>
<g>
	<g>
		<g>
			<polyline fill="none" stroke="#000000" stroke-width="1.5" stroke-miterlimit="10" points="167.906,308.748 165.406,308.748 
				166.656,306.583 			"/>
			
				<line fill="none" stroke="#000000" stroke-width="1.5" stroke-miterlimit="10" stroke-dasharray="5.1318,3.0791" x1="168.195" y1="303.916" x2="208.48" y2="234.143"/>
			<polyline fill="none" stroke="#000000" stroke-width="1.5" stroke-miterlimit="10" points="209.25,232.809 210.5,230.643 
				211.75,232.809 			"/>
			
				<line fill="none" stroke="#000000" stroke-width="1.5" stroke-miterlimit="10" stroke-dasharray="5.1318,3.0791" x1="213.289" y1="235.475" x2="253.574" y2="305.249"/>
			<polyline fill="none" stroke="#000000" stroke-width="1.5" stroke-miterlimit="10" points="254.344,306.583 255.594,308.748 
				253.094,308.748 			"/>
			
				<line fill="none" stroke="#000000" stroke-width="1.5" stroke-miterlimit="10" stroke-dasharray="5.1318,3.0791" x1="250.016" y1="308.748" x2="169.445" y2="308.748"/>
		</g>
	</g>
	<g>
		<polygon points="195.16,257.213 210.5,230.643 225.84,257.213 		"/>
	</g>
	<text transform="matrix(1 0 0 1 202.8701 254.7129)" fill="#FFFFFF" font-family="'MyriadPro-Regular'" font-size="14">VP</text>
	<text transform="matrix(1 0 0 1 202.0439 281.2129)" font-family="'MyriadPro-Regular'" font-size="14">DB</text>
	<text transform="matrix(1 0 0 1 188.8281 298.0127)" font-family="'MyriadPro-Regular'" font-size="14">pattern</text>
</g>
<g>
	<rect x="36.404" y="331" fill="none" stroke="#000000" stroke-miterlimit="10" width="109.596" height="41.215"/>
	<rect x="36.404" y="331" width="27.096" height="17.215"/>
	<text transform="matrix(1 0 0 1 46.0938 343.7148)" fill="#FFFFFF" font-family="'MyriadPro-Regular'" font-size="14">V</text>
	<text transform="matrix(1 0 0 1 38.1992 364.7148)" font-family="'MyriadPro-Regular'" font-size="14">Multiple instances</text>
</g>
<g>
	<rect x="179.404" y="331" fill="none" stroke="#000000" stroke-miterlimit="10" width="109.596" height="41.215"/>
	<rect x="179.404" y="331" width="27.096" height="17.215"/>
	<text transform="matrix(1 0 0 1 189.0938 343.7148)" fill="#FFFFFF" font-family="'MyriadPro-Regular'" font-size="14">V</text>
	<text transform="matrix(1 0 0 1 190.1592 364.7148)" font-family="'MyriadPro-Regular'" font-size="14">Single instance</text>
</g>
<g>
	<g>
		<line fill="none" stroke="#000000" stroke-width="1.5" stroke-miterlimit="10" x1="210.5" y1="90.945" x2="208.331" y2="92.188"/>
		
			<line fill="none" stroke="#000000" stroke-width="1.5" stroke-miterlimit="10" stroke-dasharray="5.0567,3.034" x1="205.697" y1="93.696" x2="94.688" y2="147.289"/>
		
			<line fill="none" stroke="#000000" stroke-width="1.5" stroke-miterlimit="10" x1="93.371" y1="148.043" x2="91.202" y2="149.286"/>
	</g>
</g>
<g>
	<g>
		<line fill="none" stroke="#000000" stroke-width="1.5" stroke-miterlimit="10" x1="210.5" y1="90.945" x2="211.318" y2="93.307"/>
		
			<line fill="none" stroke="#000000" stroke-width="1.5" stroke-miterlimit="10" stroke-dasharray="5.025,3.015" x1="212.307" y1="96.155" x2="232.889" y2="145.5"/>
		
			<line fill="none" stroke="#000000" stroke-width="1.5" stroke-miterlimit="10" x1="233.383" y1="146.924" x2="234.202" y2="149.286"/>
	</g>
</g>
<line fill="none" stroke="#000000" stroke-width="1.5" stroke-miterlimit="10" x1="91.202" y1="190.5" x2="91.202" y2="331"/>
<text transform="matrix(1 0 0 1 5.5127 279)" font-family="'MyriadPro-Regular'" font-size="14">&lt;&lt;requires&gt;&gt;</text>
<g>
	<g>
		
			<line fill="none" stroke="#000000" stroke-width="1.5" stroke-miterlimit="10" x1="210.5" y1="308.748" x2="212.322" y2="310.458"/>
		
			<line fill="none" stroke="#000000" stroke-width="1.5" stroke-miterlimit="10" stroke-dasharray="5.0946,3.0568" x1="214.551" y1="312.551" x2="231.266" y2="328.243"/>
		<line fill="none" stroke="#000000" stroke-width="1.5" stroke-miterlimit="10" x1="232.38" y1="329.289" x2="234.202" y2="331"/>
	</g>
</g>
<g>
	<g>
		
			<line fill="none" stroke="#000000" stroke-width="1.5" stroke-miterlimit="10" x1="210.5" y1="308.748" x2="208.042" y2="309.206"/>
		
			<line fill="none" stroke="#000000" stroke-width="1.5" stroke-miterlimit="10" stroke-dasharray="5.0589,3.0354" x1="205.059" y1="309.763" x2="95.151" y2="330.264"/>
		<line fill="none" stroke="#000000" stroke-width="1.5" stroke-miterlimit="10" x1="93.66" y1="330.542" x2="91.202" y2="331"/>
	</g>
</g>
<line opacity="0.6" fill="none" stroke="#000000" stroke-width="6" stroke-miterlimit="10" stroke-dasharray="15,10" enable-background="new    " x1="307" y1="217" x2="0" y2="217"/>
<text transform="matrix(1 0 0 1 6 210)" font-family="'MyriadPro-Regular'" font-size="12">external</text>
<text transform="matrix(1 0 0 1 5.5127 230.8086)"><tspan x="0" y="0" font-family="'MyriadPro-Regular'" font-size="12">internal</tspan><tspan x="0" y="14.4" font-family="'MyriadPro-Regular'" font-size="12">variability</tspan></text>
</svg>
